# xmcd
#
# Track frame offsets:
#	150
#	15446
#	29562
#	45594
#	61383
#	76990
#	94520
#	113961
#	128604
#	143296
#	159017
#	174722
#	192149
#	206445
#	225750
#	240934
#	263326
#	280498
#	300045
#	319948
#
# Disc length: 4512 seconds
#
# Revision: 7
# Processed by: cddbd v1.5.2PL0 Copyright (c) Steve Scherf et al.
# Submitted via: EasyCDDAExtractor 15.3.0.1
#
DISCID=e5119e14
DTITLE=Reba McEntire - Moments and Memories_The Best Of Reba
DYEAR=1998
DGENRE=Country
TTITLE0=Whoever's In New England
TTITLE1=Little Rock
TTITLE2=Somebody Should Leave
TTITLE3=What Am I Gonna Do Without You
TTITLE4=One Promise To Late
TTITLE5=Is There Life Out There
TTITLE6=For My Broken Heart
TTITLE7=Walk On
TTITLE8=The Greatest Man I Never Knew
TTITLE9=Why Haven't I Heard From You
TTITLE10=And Still
TTITLE11=The Heart Is A Lonely Hunter
TTITLE12=It's Your Call
TTITLE13=The Night The Lights Went Out In Georgia
TTITLE14=The Heart Won't Lie (Duet With Vince Gill)
TTITLE15=Fancy
TTITLE16=Rumor Has It
TTITLE17=Does He Love You (Duet With Linda Davis)
TTITLE18=Misty Blue
TTITLE19=Sweet Dreams
EXTD=YEAR: 1998
EXTT0=
EXTT1=
EXTT2=
EXTT3=
EXTT4=
EXTT5=
EXTT6=
EXTT7=
EXTT8=
EXTT9=
EXTT10=
EXTT11=
EXTT12=
EXTT13=
EXTT14=
EXTT15=
EXTT16=
EXTT17=
EXTT18=
EXTT19=
PLAYORDER=
